{
    "asset" : {
        "generator" : "Khronos glTF Blender I/O v1.8.19",
        "version" : "2.0"
    },
    "scene" : 0,
    "scenes" : [
        {
            "name" : "Scene",
            "nodes" : [
                0
            ]
        }
    ],
    "nodes" : [
        {
            "mesh" : 0,
            "name" : "plug",
            "rotation" : [
                0.7071067690849304,
                0,
                0,
                0.7071068286895752
            ]
        }
    ],
    "meshes" : [
        {
            "name" : "Plane.004",
            "primitives" : [
                {
                    "attributes" : {
                        "POSITION" : 0,
                        "NORMAL" : 1,
                        "TEXCOORD_0" : 2
                    },
                    "indices" : 3
                }
            ]
        }
    ],
    "accessors" : [
        {
            "bufferView" : 0,
            "componentType" : 5126,
            "count" : 502,
            "max" : [
                0.008129894733428955,
                0.019101284444332123,
                0.009750034660100937
            ],
            "min" : [
                -0.008129894733428955,
                -0.01000000350177288,
                -0.002506369724869728
            ],
            "type" : "VEC3"
        },
        {
            "bufferView" : 1,
            "componentType" : 5126,
            "count" : 502,
            "type" : "VEC3"
        },
        {
            "bufferView" : 2,
            "componentType" : 5126,
            "count" : 502,
            "type" : "VEC2"
        },
        {
            "bufferView" : 3,
            "componentType" : 5123,
            "count" : 792,
            "type" : "SCALAR"
        }
    ],
    "bufferViews" : [
        {
            "buffer" : 0,
            "byteLength" : 6024,
            "byteOffset" : 0
        },
        {
            "buffer" : 0,
            "byteLength" : 6024,
            "byteOffset" : 6024
        },
        {
            "buffer" : 0,
            "byteLength" : 4016,
            "byteOffset" : 12048
        },
        {
            "buffer" : 0,
            "byteLength" : 1584,
            "byteOffset" : 16064
        }
    ],
    "buffers" : [
        {
            "byteLength" : 17648,
            "uri" : "data:application/octet-stream;base64,"
        }
    ]
}
