{
    "asset" : {
        "generator" : "Khronos glTF Blender I/O v1.8.19",
        "version" : "2.0"
    },
    "scene" : 0,
    "scenes" : [
        {
            "name" : "Scene",
            "nodes" : [
                0
            ]
        }
    ],
    "nodes" : [
        {
            "mesh" : 0,
            "name" : "12u"
        }
    ],
    "meshes" : [
        {
            "name" : "Cube",
            "primitives" : [
                {
                    "attributes" : {
                        "POSITION" : 0,
                        "NORMAL" : 1,
                        "TEXCOORD_0" : 2
                    },
                    "indices" : 3
                }
            ]
        }
    ],
    "accessors" : [
        {
            "bufferView" : 0,
            "componentType" : 5126,
            "count" : 1972,
            "max" : [
                0.2613000273704529,
                0.26670026779174805,
                0.005000000353902578
            ],
            "min" : [
                -0.2613000273704529,
                -0.26669982075691223,
                -0.005000000353902578
            ],
            "type" : "VEC3"
        },
        {
            "bufferView" : 1,
            "componentType" : 5126,
            "count" : 1972,
            "type" : "VEC3"
        },
        {
            "bufferView" : 2,
            "componentType" : 5126,
            "count" : 1972,
            "type" : "VEC2"
        },
        {
            "bufferView" : 3,
            "componentType" : 5123,
            "count" : 3744,
            "type" : "SCALAR"
        }
    ],
    "bufferViews" : [
        {
            "buffer" : 0,
            "byteLength" : 23664,
            "byteOffset" : 0
        },
        {
            "buffer" : 0,
            "byteLength" : 23664,
            "byteOffset" : 23664
        },
        {
            "buffer" : 0,
            "byteLength" : 15776,
            "byteOffset" : 47328
        },
        {
            "buffer" : 0,
            "byteLength" : 7488,
            "byteOffset" : 63104
        }
    ],
    "buffers" : [
        {
            "byteLength" : 70592,
            "uri" : "data:application/octet-stream;base64,"
        }
    ]
}
