{
    "asset" : {
        "generator" : "Khronos glTF Blender I/O v1.8.19",
        "version" : "2.0"
    },
    "scene" : 0,
    "scenes" : [
        {
            "name" : "Scene",
            "nodes" : [
                0
            ]
        }
    ],
    "nodes" : [
        {
            "mesh" : 0,
            "name" : "Plane.001",
            "rotation" : [
                0.7071067690849304,
                0,
                0,
                0.7071068286895752
            ]
        }
    ],
    "meshes" : [
        {
            "name" : "Plane.002",
            "primitives" : [
                {
                    "attributes" : {
                        "POSITION" : 0,
                        "NORMAL" : 1,
                        "TEXCOORD_0" : 2
                    },
                    "indices" : 3
                }
            ]
        }
    ],
    "accessors" : [
        {
            "bufferView" : 0,
            "componentType" : 5126,
            "count" : 1568,
            "max" : [
                0.2612999975681305,
                0.008000001311302185,
                0.02200000174343586
            ],
            "min" : [
                -0.2612999975681305,
                -0.13600000739097595,
                -0.022000012919306755
            ],
            "type" : "VEC3"
        },
        {
            "bufferView" : 1,
            "componentType" : 5126,
            "count" : 1568,
            "type" : "VEC3"
        },
        {
            "bufferView" : 2,
            "componentType" : 5126,
            "count" : 1568,
            "type" : "VEC2"
        },
        {
            "bufferView" : 3,
            "componentType" : 5123,
            "count" : 2862,
            "type" : "SCALAR"
        }
    ],
    "bufferViews" : [
        {
            "buffer" : 0,
            "byteLength" : 18816,
            "byteOffset" : 0
        },
        {
            "buffer" : 0,
            "byteLength" : 18816,
            "byteOffset" : 18816
        },
        {
            "buffer" : 0,
            "byteLength" : 12544,
            "byteOffset" : 37632
        },
        {
            "buffer" : 0,
            "byteLength" : 5724,
            "byteOffset" : 50176
        }
    ],
    "buffers" : [
        {
            "byteLength" : 55900,
            "uri" : "data:application/octet-stream;base64,"
        }
    ]
}
